<?xml version="1.0" encoding="UTF-8"?>
<svg width="512" height="512" viewBox="0 0 512 512" fill="none" xmlns="http://www.w3.org/2000/svg">
  <rect width="512" height="512" rx="256" fill="#FFFFFF"/>
  <path d="M363.5 194.9l-84.4-118.3c-7.6-10.7-20-17-33.1-17s-25.5 6.3-33.1 17l-84.4 118.3c-7.7 10.7-10.1 24.3-6.7 37.1l32.8 122.9c3.5 13 14.2 23.2 27.4 26.1l97.6 21.2c2.2 0.5 4.5 0.7 6.7 0.7 2.3 0 4.5-0.2 6.7-0.7l97.6-21.2c13.2-2.9 23.9-13.1 27.4-26.1l32.8-122.9c3.3-12.8 0.9-26.4-6.7-37.1zm-38.6 153.5l-68.9 15c-1.6 0.3-3.2 0.3-4.7 0l-68.9-15c-10.2-2.2-18.5-10.2-21.2-20.2l-23.1-86.8c-2.6-9.9-0.6-20.5 5.2-28.7l59.6-83.5c5.9-8.3 15.5-13.2 25.6-13.2s19.7 4.9 25.6 13.2l59.6 83.5c5.8 8.2 7.8 18.8 5.2 28.7l-23.1 86.8c-2.7 10-11 18-21.2 20.2z" fill="#5573F6"/>
</svg>