<?xml version="1.0" encoding="UTF-8"?>
<svg width="512" height="512" viewBox="0 0 512 512" fill="none" xmlns="http://www.w3.org/2000/svg">
  <rect width="512" height="512" rx="256" fill="#3B99FC"/>
  <path d="M169.9 175.2c47.5-46.4 124.5-46.4 172 0l5.7 5.6c2.4 2.3 2.4 6.1 0 8.4l-19.5 19c-1.2 1.2-3.1 1.2-4.3 0l-7.9-7.7c-33.2-32.3-87-32.3-120.1 0l-8.4 8.2c-1.2 1.2-3.1 1.2-4.3 0l-19.5-19c-2.4-2.3-2.4-6.1 0-8.4l5.9-5.9v-.2zm212.8 40.2l17.4 16.9c2.4 2.3 2.4 6.1 0 8.4L318.9 320c-1.2 1.2-2.8 1.8-4.3 1.8-1.7 0-3.1-.6-4.3-1.8l-58.3-56.9c-.6-.6-1.6-.6-2.2 0l-58.3 56.9c-1.2 1.2-2.8 1.8-4.3 1.8-1.7 0-3.1-.6-4.3-1.8l-81.3-79.3c-2.4-2.3-2.4-6.1 0-8.4l17.4-16.9c1.2-1.2 3.1-1.2 4.3 0l58.3 56.9c.6.6 1.6.6 2.2 0l58.3-56.9c1.2-1.2 2.8-1.8 4.3-1.8 1.7 0 3.1.6 4.3 1.8l58.3 56.9c.6.6 1.6.6 2.2 0l58.3-56.9c1.2-1.2 3.1-1.2 4.5 0z" fill="white"/>
</svg>